<mxfile host="app.diagrams.net" agent="Mozilla/5.0 (Macintosh; Intel Mac OS X 10_15_7) AppleWebKit/605.1.15 (KHTML, like Gecko) Version/16.6 Safari/605.1.15" version="24.7.6">
  <diagram name="Page-1" id="YwoKMSd-r82hgWneK1Ok">
    <mxGraphModel dx="1207" dy="813" grid="1" gridSize="10" guides="1" tooltips="1" connect="1" arrows="1" fold="1" page="1" pageScale="1" pageWidth="850" pageHeight="1100" math="0" shadow="0">
      <root>
        <mxCell id="0" />
        <mxCell id="1" parent="0" />
        <mxCell id="kcQ6sFQqM72cCbhAd-LN-1" value="&lt;div&gt;Apache Superset&lt;br&gt;&lt;/div&gt;&lt;div&gt;Dashboard&lt;/div&gt;" style="rounded=0;whiteSpace=wrap;html=1;" vertex="1" parent="1">
          <mxGeometry x="120" width="600" height="80" as="geometry" />
        </mxCell>
        <mxCell id="kcQ6sFQqM72cCbhAd-LN-2" value="Clickhouse&lt;div&gt;OLAP Datasource&lt;/div&gt;" style="rounded=0;whiteSpace=wrap;html=1;" vertex="1" parent="1">
          <mxGeometry x="480" y="200" width="120" height="80" as="geometry" />
        </mxCell>
        <mxCell id="kcQ6sFQqM72cCbhAd-LN-20" style="edgeStyle=orthogonalEdgeStyle;rounded=0;orthogonalLoop=1;jettySize=auto;html=1;exitX=0;exitY=0.5;exitDx=0;exitDy=0;entryX=0.5;entryY=1;entryDx=0;entryDy=0;" edge="1" parent="1" source="kcQ6sFQqM72cCbhAd-LN-3" target="kcQ6sFQqM72cCbhAd-LN-15">
          <mxGeometry relative="1" as="geometry" />
        </mxCell>
        <mxCell id="kcQ6sFQqM72cCbhAd-LN-21" value="Scan Buckets for new data" style="edgeLabel;html=1;align=center;verticalAlign=middle;resizable=0;points=[];" vertex="1" connectable="0" parent="kcQ6sFQqM72cCbhAd-LN-20">
          <mxGeometry x="-0.0806" y="-2" relative="1" as="geometry">
            <mxPoint as="offset" />
          </mxGeometry>
        </mxCell>
        <mxCell id="kcQ6sFQqM72cCbhAd-LN-3" value="Min.IO&lt;div&gt;S3&lt;/div&gt;" style="rounded=0;whiteSpace=wrap;html=1;" vertex="1" parent="1">
          <mxGeometry x="480" y="280" width="320" height="80" as="geometry" />
        </mxCell>
        <mxCell id="kcQ6sFQqM72cCbhAd-LN-6" value="" style="shape=flexArrow;endArrow=classic;html=1;rounded=0;endWidth=26;endSize=15.33;width=78;strokeColor=none;startArrow=block;" edge="1" parent="1">
          <mxGeometry width="50" height="50" relative="1" as="geometry">
            <mxPoint x="650" y="410" as="sourcePoint" />
            <mxPoint x="650" y="220" as="targetPoint" />
            <Array as="points">
              <mxPoint x="650" y="300" />
            </Array>
          </mxGeometry>
        </mxCell>
        <mxCell id="kcQ6sFQqM72cCbhAd-LN-7" value="" style="shape=flexArrow;endArrow=classic;html=1;rounded=0;startArrow=block;endWidth=70;endSize=19.33;startWidth=70;startSize=19.33;width=40;exitX=0.5;exitY=0;exitDx=0;exitDy=0;entryX=0.5;entryY=1;entryDx=0;entryDy=0;" edge="1" parent="1">
          <mxGeometry width="50" height="50" relative="1" as="geometry">
            <mxPoint x="779.5" y="950" as="sourcePoint" />
            <mxPoint x="779.5" y="730" as="targetPoint" />
          </mxGeometry>
        </mxCell>
        <mxCell id="kcQ6sFQqM72cCbhAd-LN-8" value="Apache&lt;div&gt;Kafka&lt;/div&gt;" style="edgeLabel;html=1;align=center;verticalAlign=middle;resizable=0;points=[];" vertex="1" connectable="0" parent="kcQ6sFQqM72cCbhAd-LN-7">
          <mxGeometry x="0.13" y="-2" relative="1" as="geometry">
            <mxPoint x="-4" y="9" as="offset" />
          </mxGeometry>
        </mxCell>
        <mxCell id="kcQ6sFQqM72cCbhAd-LN-9" value="Source Data Raw" style="rounded=0;whiteSpace=wrap;html=1;" vertex="1" parent="1">
          <mxGeometry x="740" y="950" width="80" height="80" as="geometry" />
        </mxCell>
        <mxCell id="kcQ6sFQqM72cCbhAd-LN-10" value="Kafka&lt;div&gt;Data API Calls/Distribution&lt;/div&gt;" style="rounded=0;whiteSpace=wrap;html=1;" vertex="1" parent="1">
          <mxGeometry x="120" y="510" width="320" height="80" as="geometry" />
        </mxCell>
        <mxCell id="kcQ6sFQqM72cCbhAd-LN-11" value="" style="rounded=0;whiteSpace=wrap;html=1;" vertex="1" parent="1">
          <mxGeometry x="320" y="450" width="120" height="60" as="geometry" />
        </mxCell>
        <mxCell id="kcQ6sFQqM72cCbhAd-LN-16" style="edgeStyle=orthogonalEdgeStyle;rounded=0;orthogonalLoop=1;jettySize=auto;html=1;exitX=0.5;exitY=0;exitDx=0;exitDy=0;entryX=0.5;entryY=1;entryDx=0;entryDy=0;" edge="1" parent="1" source="kcQ6sFQqM72cCbhAd-LN-12" target="kcQ6sFQqM72cCbhAd-LN-15">
          <mxGeometry relative="1" as="geometry" />
        </mxCell>
        <mxCell id="kcQ6sFQqM72cCbhAd-LN-22" value="Call external REST APIs and send the response to NiFi" style="edgeLabel;html=1;align=center;verticalAlign=middle;resizable=0;points=[];" vertex="1" connectable="0" parent="kcQ6sFQqM72cCbhAd-LN-16">
          <mxGeometry x="-0.1619" relative="1" as="geometry">
            <mxPoint y="1" as="offset" />
          </mxGeometry>
        </mxCell>
        <mxCell id="kcQ6sFQqM72cCbhAd-LN-12" value="Producers&lt;div&gt;API Calls&lt;/div&gt;" style="rounded=0;whiteSpace=wrap;html=1;" vertex="1" parent="1">
          <mxGeometry x="120" y="450" width="120" height="60" as="geometry" />
        </mxCell>
        <mxCell id="kcQ6sFQqM72cCbhAd-LN-18" style="edgeStyle=orthogonalEdgeStyle;rounded=0;orthogonalLoop=1;jettySize=auto;html=1;exitX=1;exitY=0.5;exitDx=0;exitDy=0;entryX=0;entryY=0.5;entryDx=0;entryDy=0;" edge="1" parent="1" source="kcQ6sFQqM72cCbhAd-LN-15" target="kcQ6sFQqM72cCbhAd-LN-2">
          <mxGeometry relative="1" as="geometry">
            <mxPoint x="460" y="250" as="targetPoint" />
          </mxGeometry>
        </mxCell>
        <mxCell id="kcQ6sFQqM72cCbhAd-LN-23" value="Kafka Consumers&amp;nbsp;" style="edgeLabel;html=1;align=center;verticalAlign=middle;resizable=0;points=[];" vertex="1" connectable="0" parent="kcQ6sFQqM72cCbhAd-LN-18">
          <mxGeometry x="-0.1848" y="1" relative="1" as="geometry">
            <mxPoint as="offset" />
          </mxGeometry>
        </mxCell>
        <mxCell id="kcQ6sFQqM72cCbhAd-LN-15" value="Apache NiFi" style="rounded=0;whiteSpace=wrap;html=1;" vertex="1" parent="1">
          <mxGeometry x="120" y="200" width="120" height="80" as="geometry" />
        </mxCell>
        <mxCell id="kcQ6sFQqM72cCbhAd-LN-19" style="edgeStyle=orthogonalEdgeStyle;rounded=0;orthogonalLoop=1;jettySize=auto;html=1;exitX=0.5;exitY=0;exitDx=0;exitDy=0;entryX=0.7;entryY=1.014;entryDx=0;entryDy=0;entryPerimeter=0;" edge="1" parent="1" source="kcQ6sFQqM72cCbhAd-LN-2" target="kcQ6sFQqM72cCbhAd-LN-1">
          <mxGeometry relative="1" as="geometry" />
        </mxCell>
      </root>
    </mxGraphModel>
  </diagram>
</mxfile>
